<svg width="129" height="130" xmlns="http://www.w3.org/2000/svg">
 <!-- Created with Method Draw - http://github.com/duopixel/Method-Draw/ -->
 <g>
  <title>background</title>
  <rect fill="#000000" id="canvas_background" height="132" width="131" y="-1" x="-1"/>
 </g>
 <g>
  <title>Layer 1</title>
  <path d="m38,30.45313c0,0 -1,0 -2,0c-1,0 -2,0 -3,0c-2,0 -4,0 -6,0c-2,0 -4,0 -5,0c-1,0 -2,0 -2,1c0,1 -0.29289,1.29289 -1,2c-1.41421,1.41422 0,3 0,4c0,1 0,5 0,6c0,1 0.29289,2.29289 1,3c0.70711,0.70711 2,0 3,0c1,0 1.69344,0.45881 3,1c0.92388,0.38268 2,0 5,0c1,0 2,0 3,0c1,0 0.61732,1.07612 1,2c0.54119,1.30656 1,2 1,4c0,2 0,5 0,7c0,1 -1,1 -3,1l-1,0l-3,0" id="svg_3" stroke-width="0" stroke="#ffffff" fill="none"/>
  <path d="m29,34.45313c0,0 0,0 0,-1c0,-1 0,-2 0,-3c0,-1 0.70711,-2.29289 0,-3c-0.70711,-0.70711 -2,0 -3,0c-1,0 -2,0 -3,0c-1,0 -1.29289,0.29289 -2,1c-0.70711,0.70711 -0.09789,1.82443 -2,3c-0.85065,0.52573 -0.69255,1.18601 -2,3c-0.8269,1.14727 -1.4588,1.69344 -2,3c-0.38268,0.92388 0,2 0,3c0,1 0,3 0,4c0,1 0,2 1,2c1,0 2,0 3,0c1,0 2,0 3,0c1,0 1.61732,0.07612 2,1c0.5412,1.30656 2,1 2,2c0,1 0,2 0,3c0,1 0,2 0,3c0,1 -0.69344,2.45881 -2,3c-0.92388,0.38268 -1,1 -2,1c-1,0 -2,0 -3,0l-1,0l-1,0l-1,0" id="svg_5" stroke-width="2" stroke="#ffffff" fill="none"/>
  <path d="m39,30.45313c0,1 0,2 0,3c0,1 0,2 0,3c0,1 0,2 0,3c0,1 0,2 0,3c0,1 0,2 0,3c0,1 0,2 0,3c0,1 0,2 0,3c0,1 0,2 0,3l0,1" id="svg_6" stroke-width="2" stroke="#ffffff" fill="none"/>
  <path d="m47,43.45313c1,1 1.29289,1.29289 2,2c0.70711,0.70711 1.07612,1.61732 2,2c1.30656,0.54119 2.45881,0.69344 3,2c0.38268,0.92388 1,1 1,2l-1,0" id="svg_7" stroke-width="2" stroke="#ffffff" fill="none"/>
  <polyline stroke-linecap="round" id="svg_8" points="168,285.453125 167,285.453125 " stroke-width="2" stroke="#ffffff" fill="none"/>
  <path d="m42,44.45313c0,-1 2.70546,-2.34619 5,-4c1.81399,-1.30745 4.29289,-1.29289 5,-2c0.70711,-0.70711 0.29289,-1.29289 1,-2c0.70711,-0.70711 1,-1 1,-2l1,-1l0,-1" id="svg_9" stroke-width="2" stroke="#ffffff" fill="none"/>
  <path d="m64.34026,38.6272c0,0.31949 0.31949,0.63898 0.31949,0.95847c0,0.31949 0,0.63898 0,1.27795c0,0.63898 0.79663,2.19762 0.95847,3.19489c0.2047,1.26146 -0.04881,2.24963 0.31949,3.51438c0.28247,0.97002 0.31949,1.91693 0.31949,2.8754c0,0.95847 0.31949,2.23642 0.31949,3.51438c0,0.63898 0,1.27795 0,1.59744l0,0.31949" id="svg_12" stroke-width="2" stroke="#ffffff" fill="none"/>
  <path d="m64.97924,30.32049c0,-0.31949 -0.46607,-0.22155 -0.63898,-0.63898c-0.24452,-0.59034 -0.48545,-1.60982 -0.63898,-2.55591c-0.16183,-0.99726 -0.63898,-1.59744 -0.63898,-2.23642c0,-0.31949 0.19722,-0.29517 0.31949,0c0.1729,0.41743 0.51672,0.6633 0.63898,0.95847c0.1729,0.41743 0.54075,1.01789 0.95847,1.59744c0.26418,0.36654 0.63898,0.63898 0.63898,0.95847c0,0.31949 -0.09357,0.22591 -0.31949,0c-0.22591,-0.22591 -0.41306,-0.09358 -0.63898,-0.31949c-0.22591,-0.22591 -0.14658,-0.86052 -0.31949,-1.27796c-0.12226,-0.29517 0,-0.95847 0,-1.27796c0,-0.31949 0.31949,-0.31949 0.63898,-0.31949l0.31949,0l0.31949,0" id="svg_13" stroke-width="2" stroke="#ffffff" fill="none"/>
  <path d="m75.84186,25.52816c0,0.63898 -0.03148,1.27951 0,1.59744c0.16052,1.62115 0.86402,3.19955 0.95847,4.15335c0.16052,1.62115 0.50144,2.27892 0.95847,3.51438c0.24786,0.67002 1.27483,2.80839 1.59744,5.11182c0.22157,1.582 0.28159,2.56396 0.63898,4.15335c0.28899,1.2852 0.31949,2.23642 0.31949,3.83387c0,1.27795 0,1.91693 0,2.23642c0,0.31949 0,0.63898 0,0.95847c0,0.31949 0,1.27795 0,1.59744l0,0.31949l0,0.31949l0,0.31949" id="svg_14" stroke-width="2" stroke="#ffffff" fill="none"/>
  <path d="m88.9409,24.56969c0.31949,0 0.45779,0.25637 1.27795,2.23642c0.38663,0.93341 0.81425,1.84343 1.27795,3.19489c0.52869,1.5409 1.29259,3.5099 2.55591,7.66773c0.96971,3.19149 1.5303,5.13688 1.91694,6.07029c0.27339,0.66002 0.31949,0.95847 0.31949,1.27795c0,0.31949 0.6302,1.48483 0.95847,2.8754c0.22021,0.93283 0,2.55591 0,3.19489c0,1.27795 0,1.59744 0,2.55591l0,0.95847l0,0.31949" id="svg_15" stroke-width="2" stroke="#ffffff" fill="none"/>
  <path d="m113.54154,35.11282c0,-0.31949 -0.64752,-0.24609 -0.95847,-0.31949c-0.69529,-0.16413 -0.95847,-0.31949 -1.27796,-0.31949c-0.31949,0 -0.63898,0 -0.95847,0c-0.95847,0 -1.59744,0 -1.91693,0.31949c-0.31949,0.31949 -0.78556,0.22155 -0.95847,0.63898c-0.12226,0.29517 -0.31949,0.95847 -0.31949,1.27795c0,0.31949 -0.31949,0.95847 -0.31949,1.27796c0,0.31949 0,0.63898 0,0.95847c0,0.31949 0,0.95847 0,1.27795c0,0.63898 0.09357,0.73256 0.31949,0.95847c0.22591,0.22591 0.35076,0.90237 0.95847,1.27795c0.27177,0.16796 0.98411,0.41877 1.91693,0.63898c1.39057,0.32827 1.62538,0.57314 3.19489,1.27795c0.6517,0.29266 0.96701,0.24609 1.27795,0.31949c0.69529,0.16413 0.95847,0.31949 1.27795,0.63898c0.31949,0.31949 0.78556,0.86052 0.95847,1.27795c0.24453,0.59034 0,0.95847 0,1.27795c0,0.31949 0,0.63898 0,0.95847c0,0.31949 0.5039,0.78213 0,1.59745c-0.37558,0.6077 -0.95847,0.63898 -1.27795,0.95847c-0.31949,0.31949 -1.27795,0.31949 -1.91693,0.63898c-0.63898,0.31949 -1.30302,0.57183 -2.23643,0.95847c-0.66002,0.27339 -0.95847,0.31949 -1.59744,0.31949c-0.31949,0 -1.27795,0 -1.59744,0c-0.31949,0 -0.31949,0.31949 -0.63898,0.31949l-0.31949,0l-0.31949,0" id="svg_16" stroke-width="2" stroke="#ffffff" fill="none"/>
  <path d="m48.36582,76.96586c0,0.31949 0,0.63898 0,1.91693c0,0.63898 0,1.27796 0,2.23643c0,0.63898 0.15535,1.22164 0.31949,1.91693c0.0734,0.31094 0.31949,1.27795 0.31949,1.91693l0.31949,1.27795l0,0.31949" id="svg_17" stroke-width="2" stroke="#ffffff" fill="none"/>
  <path d="m71.68851,74.40995c0,0.31949 -0.12226,0.98279 0,1.27795c0.1729,0.41743 0.31949,1.27795 0.31949,2.23642c0,1.27795 0.15765,2.51711 0.31949,3.51438c0.10236,0.63073 0.15854,0.929 0.31949,2.23642c0.07807,0.63419 0.15535,1.54113 0.31949,2.23642c0.1468,0.62189 0,0.95847 0,1.27795c0,0.31949 0,0.63898 0,0.95847c0,0.63898 0,0.95847 0,1.59744c0,0.31949 0,0.63898 0,0.95847l0,0.31949" id="svg_18" stroke-width="2" stroke="#ffffff" fill="none"/>
  <path d="m87.02396,101.24701c0,0.31949 0,0.63898 0,1.27795c0,0.31949 0.1468,0.97556 0,1.59745c-0.32827,1.39057 -1.51642,3.24638 -2.55591,4.79233c-0.89136,1.32564 -1.77284,2.11068 -2.8754,3.83387c-0.38503,0.60176 -1.62201,0.87267 -2.8754,1.27795c-1.63705,0.52934 -2.86197,1.00026 -4.79233,1.59744c-2.22201,0.68741 -3.19925,1.17255 -4.47285,1.27795c-1.93675,0.16029 -3.2011,0.19357 -4.47284,0.31949c-1.62115,0.16052 -3.17507,0.79817 -5.11182,0.95847c-1.9104,0.15811 -3.83387,0 -4.79233,0c-1.91693,0 -3.19489,-0.31949 -3.83387,-0.63898c-0.63898,-0.31949 -1.18818,-0.73808 -2.23642,-1.59744c-0.89084,-0.73031 -2.55591,-1.59744 -3.51437,-2.55591c-0.95847,-0.95847 -2.49008,-3.22283 -3.19489,-4.79234c-0.58532,-1.30341 -1.51927,-3.87604 -2.23642,-5.11182c-0.57819,-0.99632 -0.71394,-1.64608 -0.95847,-2.23642c-0.1729,-0.41743 -0.63898,-0.95847 -0.95847,-1.91693l-0.31949,-1.91693l-0.31949,-0.63898l-0.31949,-0.31949" id="svg_19" stroke-width="2" stroke="#ffffff" fill="none"/>
 </g>
</svg>